<?xml version="1.0" encoding="UTF-8"?><!DOCTYPE svg PUBLIC "-//W3C//DTD SVG 1.1//EN" "http://www.w3.org/Graphics/SVG/1.1/DTD/svg11.dtd"><svg xmlns="http://www.w3.org/2000/svg"><symbol id="angle-double-left" viewBox="0 0 17 28"><path d="M9.797 21.5q0 .203-.156.36l-.78.78q-.156.156-.36.156t-.358-.156l-7.28-7.28Q.704 15.202.704 15t.156-.36l7.282-7.28q.156-.156.36-.156t.358.156l.78.78q.157.157.157.36t-.156.36L3.5 15l6.14 6.14q.157.157.157.36zm6 0q0 .203-.156.36l-.78.78q-.156.156-.36.156t-.358-.156l-7.28-7.28q-.157-.157-.157-.36t.156-.36l7.282-7.28q.156-.156.36-.156t.358.156l.78.78q.157.157.157.36t-.156.36L9.5 15l6.14 6.14q.157.157.157.36z"/></symbol><symbol id="angle-double-right" viewBox="0 0 16 28"><path d="M9.297 15q0 .203-.156.36l-7.28 7.28q-.156.156-.36.156t-.358-.156l-.78-.78q-.157-.157-.157-.36t.156-.36L6.503 15 .362 8.86Q.204 8.702.204 8.5t.156-.36l.782-.78q.156-.156.36-.156t.358.156l7.28 7.28q.157.157.157.36zm6 0q0 .203-.156.36l-7.28 7.28q-.156.156-.36.156t-.358-.156l-.78-.78q-.157-.157-.157-.36t.156-.36L12.503 15l-6.14-6.14q-.157-.157-.157-.36t.156-.36l.782-.78q.156-.156.36-.156t.358.156l7.28 7.28q.157.157.157.36z"/></symbol><symbol id="angle-down" viewBox="0 0 18 28"><path d="M16.797 11.5q0 .203-.156.36l-7.28 7.28q-.156.156-.36.156t-.358-.156l-7.28-7.28q-.157-.157-.157-.36t.156-.36l.782-.78q.156-.156.36-.156t.358.156L9 16.5l6.142-6.14q.156-.156.36-.156t.358.156l.78.78q.157.157.157.36z"/></symbol><symbol id="angle-left" viewBox="0 0 11 28"><path d="M9.797 8.5q0 .203-.156.36L3.5 15l6.14 6.14q.157.157.157.36t-.156.36l-.78.78q-.156.156-.36.156t-.358-.156l-7.28-7.28Q.704 15.202.704 15t.156-.36l7.282-7.28q.156-.156.36-.156t.358.156l.78.78q.157.157.157.36z"/></symbol><symbol id="angle-right" viewBox="0 0 10 28"><path d="M9.297 15q0 .203-.156.36l-7.28 7.28q-.156.156-.36.156t-.358-.156l-.78-.78q-.157-.157-.157-.36t.156-.36L6.503 15 .362 8.86Q.204 8.702.204 8.5t.156-.36l.782-.78q.156-.156.36-.156t.358.156l7.28 7.28q.157.157.157.36z"/></symbol><symbol id="envelope" viewBox="0 0 28 28"><path d="M28 11.094V23.5q0 1.03-.734 1.766T25.5 26h-23q-1.03 0-1.766-.734T0 23.5V11.094q.688.766 1.578 1.36 5.656 3.843 7.766 5.39.89.656 1.445 1.023t1.476.75 1.72.383h.03q.797 0 1.72-.383t1.476-.75 1.445-1.023q2.656-1.922 7.78-5.39.892-.61 1.564-1.36zM28 6.5q0 1.234-.766 2.36t-1.906 1.92l-7.313 5.08q-.156.108-.664.476t-.843.594-.812.508-.898.422-.78.14h-.032q-.36 0-.78-.14t-.9-.422-.81-.508-.845-.594-.664-.477q-1.422-1-4.094-2.853T2.69 10.78q-.97-.656-1.83-1.805T.003 6.842q0-1.22.648-2.03t1.852-.813h23q1.016 0 1.758.733t.742 1.766z"/></symbol><symbol id="facebook" viewBox="0 0 32 32"><path d="M26.667 0H5.333A5.334 5.334 0 0 0 0 5.334v21.332A5.333 5.333 0 0 0 5.333 32H16V18h-4v-4h4v-3c0-2.76 2.24-5 5-5h5v4h-5a1 1 0 0 0-1 1v3h5.5l-1 4H20v14h6.667A5.334 5.334 0 0 0 32 26.666V5.334A5.333 5.333 0 0 0 26.667 0z"/></symbol><symbol id="instagram" viewBox="0 0 113.386 113.386"><path d="M100.136 47.884h-9.854c.718 2.787 1.142 5.7 1.142 8.71 0 19.238-15.592 34.83-34.827 34.83-19.234 0-34.827-15.592-34.827-34.83 0-3.01.426-5.923 1.144-8.71H13.06v47.893c0 2.4 1.95 4.35 4.357 4.35h78.36c2.41 0 4.36-1.948 4.36-4.35V47.884zm0-30.473a4.355 4.355 0 0 0-4.358-4.35H82.72a4.354 4.354 0 0 0-4.354 4.352v13.064a4.353 4.353 0 0 0 4.354 4.353h13.058a4.355 4.355 0 0 0 4.358-4.354V17.41zM56.596 34.83c-12.023 0-21.768 9.744-21.768 21.767 0 12.02 9.745 21.77 21.768 21.77s21.77-9.75 21.77-21.77c0-12.023-9.747-21.767-21.77-21.767m43.54 78.365H13.058c-7.21 0-13.058-5.85-13.058-13.066v-87.07C0 5.848 5.847 0 13.058 0h87.078c7.212 0 13.058 5.846 13.058 13.058v87.068c0 7.217-5.846 13.066-13.058 13.066"/></symbol><symbol id="map-marker" viewBox="0 0 16 28"><path d="M12 10q0-1.656-1.172-2.828T8 6 5.172 7.172 4 10t1.172 2.828T8 14t2.828-1.172T12 10zm4 0q0 1.703-.516 2.797L9.796 24.89q-.25.517-.742.813T8 26t-1.056-.297-.727-.812L.514 12.798Q-.002 11.703-.002 10q0-3.313 2.344-5.656T7.998 2t5.656 2.344T15.998 10z"/></symbol><symbol id="mobile" viewBox="0 0 12 28"><path d="M7.25 22q0-.516-.367-.883T6 20.75t-.883.367T4.75 22t.367.883.883.367.883-.367T7.25 22zm3.25-2.5v-11q0-.203-.148-.352T10 8H2q-.203 0-.352.148T1.5 8.5v11q0 .203.148.352T2 20h8q.203 0 .352-.148t.148-.352zm-3-13.25Q7.5 6 7.25 6h-2.5q-.25 0-.25.25t.25.25h2.5q.25 0 .25-.25zM12 6v16q0 .812-.594 1.406T10 24H2q-.812 0-1.406-.594T0 22V6q0-.812.594-1.406T2 4h8q.812 0 1.406.594T12 6z"/></symbol><symbol id="search" viewBox="0 0 26 28"><path d="M18 13q0-2.89-2.055-4.945T11 6 6.055 8.055 4 13t2.055 4.945T11 20t4.945-2.055T18 13zm8 13q0 .812-.594 1.406T24 28q-.844 0-1.406-.594l-5.36-5.344Q14.44 24 11.002 24q-2.233 0-4.272-.868t-3.516-2.344-2.344-3.516T0 13 .87 8.725 3.212 5.21t3.516-2.344T11 2t4.274.866T18.79 5.21t2.344 3.516T22 13q0 3.436-1.936 6.233l5.36 5.36q.577.577.577 1.405z"/></symbol><symbol id="skype" viewBox="0 0 24 28"><path d="M18.328 16.61q0-.782-.305-1.43t-.758-1.07-1.14-.767-1.29-.53-1.367-.36l-1.625-.375q-.47-.11-.688-.164t-.547-.18-.47-.25-.257-.328-.116-.47q0-1.202 2.25-1.202.672 0 1.203.187t.844.446.595.523.625.452.75.187q.734 0 1.18-.5t.445-1.204q0-.86-.875-1.555t-2.22-1.054-2.843-.36q-1.062 0-2.063.243t-1.867.733-1.39 1.36-.524 2.007q0 .953.297 1.664t.875 1.18 1.25.758 1.61.508l2.28.562q1.406.344 1.75.562.5.313.5.938 0 .61-.625 1.008t-1.64.398q-.798 0-1.43-.25t-1.017-.602-.71-.703-.72-.602-.844-.25q-.782 0-1.18.47t-.4 1.172q0 1.437 1.907 2.46t4.547 1.024q1.14 0 2.187-.29t1.915-.835 1.383-1.46.516-2.055zM24 20q0 2.484-1.758 4.242T18 26q-2.03 0-3.656-1.25Q13.14 25 12 25q-2.234 0-4.273-.867T4.21 21.79t-2.343-3.517T1 14q0-1.14.25-2.344Q0 10.03 0 8q0-2.484 1.758-4.242T6 2q2.03 0 3.656 1.25Q10.86 3 12 3q2.234 0 4.273.867T19.79 6.21t2.343 3.517T23 14q0 1.14-.25 2.344Q24 17.97 24 20z"/></symbol><symbol id="twitter" viewBox="0 0 32 32"><path d="M32 6.076a13.142 13.142 0 0 1-3.77 1.034 6.598 6.598 0 0 0 2.886-3.632c-1.27.752-2.674 1.3-4.17 1.593A6.55 6.55 0 0 0 22.156 3a6.566 6.566 0 0 0-6.565 6.565c0 .515.06 1.016.17 1.496A18.65 18.65 0 0 1 2.23 4.2a6.564 6.564 0 0 0 2.032 8.765 6.563 6.563 0 0 1-2.975-.82v.083a6.568 6.568 0 0 0 5.265 6.437 6.566 6.566 0 0 1-2.964.112 6.574 6.574 0 0 0 6.133 4.56A13.186 13.186 0 0 1 0 26.054a18.573 18.573 0 0 0 10.063 2.95c12.076 0 18.68-10.004 18.68-18.68 0-.285-.007-.568-.02-.85A13.298 13.298 0 0 0 32 6.077z"/></symbol></svg>